<svg width="28" height="28" viewBox="0 0 28 28" fill="none" xmlns="http://www.w3.org/2000/svg">
<path d="M23.2 4H4.8C4.3575 4 4 4.3575 4 4.8V23.2C4 23.6425 4.3575 24 4.8 24H23.2C23.6425 24 24 23.6425 24 23.2V4.8C24 4.3575 23.6425 4 23.2 4ZM20.89 9.8375H19.2925C18.04 9.8375 17.7975 10.4325 17.7975 11.3075V13.235H20.7875L20.3975 16.2525H17.7975V24H14.68V16.255H12.0725V13.235H14.68V11.01C14.68 8.4275 16.2575 7.02 18.5625 7.02C19.6675 7.02 20.615 7.1025 20.8925 7.14V9.8375H20.89Z" fill="#D3A265"/>
</svg>
