<svg width="28" height="28" viewBox="0 0 28 28" fill="none" xmlns="http://www.w3.org/2000/svg">
<path d="M23.2 4H4.8C4.3575 4 4 4.3575 4 4.8V23.2C4 23.6425 4.3575 24 4.8 24H23.2C23.6425 24 24 23.6425 24 23.2V4.8C24 4.3575 23.6425 4 23.2 4ZM9.9325 21.0425H6.965V11.4975H9.9325V21.0425ZM8.45 10.1925C8.10982 10.1925 7.77727 10.0916 7.49442 9.90263C7.21157 9.71363 6.99111 9.445 6.86093 9.13072C6.73074 8.81643 6.69668 8.47059 6.76305 8.13694C6.82942 7.8033 6.99323 7.49682 7.23378 7.25628C7.47432 7.01573 7.7808 6.85192 8.11444 6.78555C8.44809 6.71918 8.79393 6.75324 9.10822 6.88343C9.4225 7.01361 9.69113 7.23407 9.88013 7.51692C10.0691 7.79977 10.17 8.13232 10.17 8.4725C10.1675 9.4225 9.3975 10.1925 8.45 10.1925ZM21.0425 21.0425H18.0775V16.4C18.0775 15.2925 18.0575 13.87 16.535 13.87C14.9925 13.87 14.755 15.075 14.755 16.32V21.0425H11.7925V11.4975H14.6375V12.8025H14.6775C15.0725 12.0525 16.04 11.26 17.485 11.26C20.49 11.26 21.0425 13.2375 21.0425 15.8075V21.0425V21.0425Z" fill="#D3A265"/>
</svg>
