<svg width="28" height="28" viewBox="0 0 28 28" fill="none" xmlns="http://www.w3.org/2000/svg">
<path d="M4 4V24H24V4H4ZM20 11V11.375C20 15.5 16.875 20.125 11.25 20.125C9.5 20.125 7.875 19.625 6.5 18.75H7.25C8.75 18.75 10 18.25 11.125 17.375C9.75 17.375 8.625 16.5 8.25 15.25H8.875C9.125 15.25 9.375 15.25 9.625 15.125C8.25 14.875 7.125 13.625 7.125 12.125C7.5 12.375 8 12.5 8.5 12.5C7.625 12 7.125 11 7.125 10C7.125 9.375 7.25 8.875 7.5 8.5C9 10.375 11.375 11.5 13.875 11.625C13.875 11.375 13.75 11.125 13.75 10.875C13.75 9.125 15.125 7.75 16.875 7.75C17.75 7.75 18.5 8.125 19.125 8.75C19.875 8.625 20.5 8.375 21.125 8C20.875 8.75 20.375 9.375 19.75 9.75C20.375 9.625 21 9.5 21.5 9.25C21.125 10 20.625 10.5 20 11V11Z" fill="#D3A265"/>
</svg>
